<?xml version="1.0" encoding="iso-8859-1"?>
<!-- Generator: Adobe Illustrator 19.0.0, SVG Export Plug-In . SVG Version: 6.00 Build 0)  -->
<svg xmlns="http://www.w3.org/2000/svg" xmlns:xlink="http://www.w3.org/1999/xlink" version="1.1" id="Capa_1" x="0px" y="0px" viewBox="0 0 496 496" style="enable-background:new 0 0 496 496;" xml:space="preserve" width="512px" height="512px">
<g>
	<g>
		<g>
			<path d="M360,380v-44V176H136v160v44v4c0,61.76,50.24,112,112,112s112-50.24,112-112V380z M216,304c0-17.648,14.352-32,32-32     s32,14.352,32,32s-14.352,32-32,32S216,321.648,216,304z M240,351.272v28.72c0,13.632-6.232,25.832-16,33.912v-68.4     C228.864,348.328,234.256,350.304,240,351.272z M152,192h88v64.72c-20.056,3.384-35.888,19.224-39.28,39.28H152V192z M152,336     v-24h16v16h16v-16h16.72c1.136,6.736,3.64,13,7.28,18.48v91.816c-3.824,1.08-7.832,1.704-12,1.704c-4.168,0-8.176-0.624-12-1.704     V344h-16v69.912c-9.768-8.08-16-20.28-16-33.912V336z M248,480c-35.928,0-67.264-19.864-83.72-49.16     c9.216,5.768,20.064,9.16,31.72,9.16c22.232,0,41.632-12.184,52-30.192C258.368,427.816,277.768,440,300,440     c11.656,0,22.504-3.392,31.72-9.16C315.264,460.136,283.928,480,248,480z M344,336v44c0,24.256-19.744,44-44,44     c-24.256,0-44-19.744-44-44v-28.72c20.056-3.384,35.888-19.224,39.28-39.28H344V336z M344,296h-48.72     c-3.384-20.056-19.224-35.888-39.28-39.28V192h88V296z" fill="#FFFFFF"/>
			<path d="M272,304c0-13.232-10.768-24-24-24s-24,10.768-24,24s10.768,24,24,24S272,317.232,272,304z M240,304c0-4.416,3.584-8,8-8     s8,3.584,8,8c0,4.416-3.584,8-8,8C243.584,312,240,308.416,240,304z" fill="#FFFFFF"/>
			<polygon points="280,368 296,368 296,408 312,408 312,368 328,368 328,352 312,352 312,336 296,336 296,352 280,352    " fill="#FFFFFF"/>
			<path d="M224,208h-56v48h56V208z M208,240h-24v-16h24V240z" fill="#FFFFFF"/>
			<path d="M304,272c17.648,0,32-14.352,32-32s-14.352-32-32-32s-32,14.352-32,32S286.352,272,304,272z M304,224     c8.824,0,16,7.176,16,16c0,8.824-7.176,16-16,16c-8.824,0-16-7.176-16-16C288,231.176,295.176,224,304,224z" fill="#FFFFFF"/>
			<path d="M158.104,115.016L160,116.28V120v40h176v-40v-3.72l1.904-1.264C349.984,106.96,357.8,94.184,359.6,80H376V64h-17.064     c-1.008-5.088-2.776-9.92-5.248-14.376l11.968-11.968l-11.312-11.312L343.72,36.968c-3.304-2.984-7.024-5.568-11.152-7.632     c-4.056-2.032-8.28-3.488-12.568-4.528V8h-16v15.128c-9.744,0.368-19.392,3.176-28.08,8.384l-7.16,4.296     C270.768,32.312,272,28.312,272,24c0-13.232-10.768-24-24-24s-24,10.768-24,24c0,4.312,1.232,8.312,3.232,11.808l-7.152-4.296     c-6.304-3.768-13.104-6.248-20.08-7.488V8h-16v15.416c-7.04,0.704-14.008,2.64-20.568,5.92c-0.616,0.304-1.152,0.704-1.752,1.032     l-12.024-12.024l-11.312,11.312l10.672,10.672C142.96,46.944,138.824,55.08,137.064,64H120v16h16.4     C138.2,94.184,146.016,106.96,158.104,115.016z M284.16,45.232c12.64-7.592,28.088-8.176,41.256-1.584     C336.872,49.384,344,60.904,344,73.728c0,8.6-3.28,16.72-8.992,22.864c-3.144-14.68-14.264-26.656-29.312-30.408     c-6.344-1.592-13.048-1.592-19.392,0L272,69.76V56c0-1.12-0.184-2.192-0.328-3.272L284.16,45.232z M248,16c4.416,0,8,3.584,8,8     s-3.584,8-8,8c-4.416,0-8-3.584-8-8S243.584,16,248,16z M240,56c0-4.416,3.584-8,8-8s8,3.584,8,8v48c0,4.416-3.584,8-8,8     c-4.416,0-8-3.584-8-8V56z M288,128v-16h-17.472c0.896-2.512,1.472-5.184,1.472-8V86.24l18.176-4.544     c3.816-0.936,7.832-0.936,11.64,0C312.52,84.376,320,93.952,320,104.984V112h-16v16h16v16H176v-16H288z M176,112v-7.016     c0-11.032,7.48-20.608,18.176-23.288c3.816-0.936,7.832-0.936,11.64,0L224,86.24V104c0,2.816,0.576,5.488,1.472,8H176z      M170.584,43.648c13.184-6.608,28.616-6,41.256,1.584l12.488,7.496C224.184,53.808,224,54.88,224,56v13.76l-14.304-3.576     c-6.344-1.592-13.056-1.592-19.4,0c-15.048,3.76-26.16,15.728-29.304,30.408C155.28,90.44,152,82.328,152,73.728     C152,60.904,159.128,49.384,170.584,43.648z" fill="#FFFFFF"/>
			<path d="M480,448v-32h-16v-3.72l7.128-4.752C481.696,400.488,488,388.704,488,376c0-12.704-6.304-24.488-16.872-31.528     L464,339.72v-23.432l7.128-4.752C481.696,304.488,488,292.704,488,280c0-12.704-6.304-24.488-16.872-31.528L464,243.72v-37.192     c9.288-3.312,16-12.112,16-22.528c0-6.168-2.408-11.744-6.24-16c3.84-4.256,6.24-9.832,6.24-16     c0-10.664-7.04-19.624-16.68-22.736C460.096,110.416,443.744,96,424,96c-19.744,0-36.096,14.416-39.32,33.264     C375.04,132.376,368,141.336,368,152c0,6.168,2.408,11.744,6.24,16c-3.84,4.256-6.24,9.832-6.24,16     c0,10.416,6.712,19.216,16,22.528v16.528l-8.008-4.008l0.024,32.2c0,7.952,3.008,15.336,7.984,21.008v46.8l-8.008-4.008     l0.024,32.2c0,7.952,3.008,15.336,7.984,21.008V416h-16v32h-16v48h144v-48H480z M472,376c0,7.336-3.648,14.152-9.752,18.216     l-3.592,2.4c-11.92-18.152-31.144-30.488-52.952-33.6c-7.8-1.112-13.68-7.888-13.688-15.784l-0.008-6.336     c15.648,7.272,32.92,11.104,50.16,11.104h11.408l8.672,5.784C468.352,361.848,472,368.664,472,376z M448,410.12V416h-48v-37.968     c1.16,0.304,2.296,0.664,3.504,0.832C422.496,381.576,438.968,393.232,448,410.12z M400,326.784v-44.752     c1.16,0.304,2.296,0.664,3.504,0.832c18.992,2.712,35.464,14.368,44.496,31.256V336h-5.832     C427.68,336,413.224,332.728,400,326.784z M472,280c0,7.336-3.648,14.152-9.752,18.216l-3.592,2.4     c-11.92-18.152-31.144-30.488-52.952-33.6c-7.8-1.112-13.68-7.888-13.688-15.784l-0.008-6.336     c15.648,7.272,32.92,11.104,50.16,11.104h11.408l8.672,5.784C468.352,265.848,472,272.664,472,280z M400,230.784V208h48v32     h-5.832C427.68,240,413.224,236.728,400,230.784z M424,112c10.416,0,19.216,6.712,22.528,16H401.48     C404.784,118.712,413.584,112,424,112z M392,144h64c4.416,0,8,3.584,8,8s-3.584,8-8,8h-64c-4.416,0-8-3.584-8-8     S387.584,144,392,144z M392,176h64c4.416,0,8,3.584,8,8s-3.584,8-8,8h-64c-4.416,0-8-3.584-8-8S387.584,176,392,176z M480,480     H368v-16h32v-16h-16v-16h80v16h-48v16h64V480z" fill="#FFFFFF"/>
			<path d="M128,416h-16v-47.736c4.976-5.664,7.984-13.056,7.984-21.008l0.024-32.2l-8.008,4v-46.792     c4.976-5.664,7.984-13.056,7.984-21.008l0.024-32.2l-8.008,4v-16.528c9.288-3.312,16-12.112,16-22.528     c0-6.168-2.408-11.744-6.24-16c3.84-4.256,6.24-9.832,6.24-16c0-10.664-7.04-19.624-16.68-22.736     C108.096,110.416,91.744,96,72,96s-36.096,14.416-39.32,33.264C23.04,132.376,16,141.336,16,152c0,6.168,2.408,11.744,6.24,16     c-3.832,4.256-6.24,9.832-6.24,16c0,10.416,6.712,19.216,16,22.528v37.192l-7.128,4.752C14.304,255.512,8,267.296,8,280     c0,12.704,6.304,24.488,16.872,31.528L32,316.28v23.44l-7.128,4.752C14.304,351.512,8,363.296,8,376     c0,12.704,6.304,24.488,16.872,31.528L32,412.28V416H16v32H0v48h144v-48h-16V416z M72,112c10.416,0,19.216,6.712,22.528,16     H49.472C52.784,118.712,61.584,112,72,112z M40,144h64c4.416,0,8,3.584,8,8s-3.584,8-8,8H40c-4.416,0-8-3.584-8-8     S35.584,144,40,144z M40,176h64c4.416,0,8,3.584,8,8s-3.584,8-8,8H40c-4.416,0-8-3.584-8-8S35.584,176,40,176z M96,208v22.784     C82.776,236.728,68.32,240,53.832,240H48v-32H96z M24,280c0-7.336,3.648-14.152,9.752-18.216L42.424,256h11.408     c17.24,0,34.504-3.832,50.168-11.104l-0.008,6.336c-0.008,7.888-5.888,14.672-13.752,15.792     c-21.752,3.112-40.96,15.448-52.888,33.584l-3.592-2.392C27.648,294.152,24,287.336,24,280z M96,282.04v44.744     C82.776,332.728,68.32,336,53.832,336H48v-21.872c9.032-16.88,25.504-28.544,44.536-31.264     C93.728,282.696,94.848,282.336,96,282.04z M24,376c0-7.336,3.648-14.152,9.752-18.216L42.424,352h11.408     c17.24,0,34.504-3.832,50.168-11.104l-0.008,6.336c-0.008,7.888-5.888,14.672-13.752,15.792     c-21.752,3.112-40.96,15.448-52.888,33.584l-3.592-2.392C27.648,390.152,24,383.336,24,376z M96,378.04V416H48v-5.872     c9.032-16.88,25.504-28.544,44.536-31.264C93.728,378.696,94.848,378.336,96,378.04z M32,432h80v16H32V432z M128,480H16v-16h112     V480z" fill="#FFFFFF"/>
		</g>
	</g>
</g>
<g>
</g>
<g>
</g>
<g>
</g>
<g>
</g>
<g>
</g>
<g>
</g>
<g>
</g>
<g>
</g>
<g>
</g>
<g>
</g>
<g>
</g>
<g>
</g>
<g>
</g>
<g>
</g>
<g>
</g>
</svg>
